<?xml version="1.0" standalone="no"?>
<!DOCTYPE svg PUBLIC "-//W3C//DTD SVG 20010904//EN"
 "http://www.w3.org/TR/2001/REC-SVG-20010904/DTD/svg10.dtd">
<svg version="1.0" xmlns="http://www.w3.org/2000/svg"
 width="60.000000pt" height="60.000000pt" viewBox="0 0 60.000000 60.000000"
 preserveAspectRatio="xMidYMid meet">

<g transform="translate(0.000000,60.000000) scale(0.100000,-0.100000)"
fill="#000000" stroke="none">
<path d="M362 580 c-41 -25 -72 -76 -72 -119 l0 -34 -22 20 c-53 48 -111 56
-166 23 -50 -31 -72 -75 -72 -146 0 -43 -5 -65 -15 -74 -19 -16 -22 -219 -3
-238 17 -17 299 -17 316 0 7 7 12 31 12 55 l0 43 118 0 c78 0 122 4 130 12 19
19 16 222 -3 238 -10 9 -15 31 -15 74 0 43 -6 70 -20 94 -42 68 -124 91 -188
52z m149 -39 c37 -37 39 -41 39 -105 0 -52 -3 -66 -15 -66 -12 0 -15 13 -15
61 0 54 -3 64 -29 90 -20 20 -39 29 -61 29 -22 0 -41 -9 -61 -29 -26 -26 -29
-36 -29 -90 0 -48 -3 -61 -15 -61 -12 0 -15 14 -15 66 0 64 2 68 39 105 33 33
45 39 81 39 36 0 48 -6 81 -39z m-34 -33 c19 -18 23 -32 23 -80 l0 -58 -70 0
-70 0 0 57 c0 44 5 62 22 80 27 29 65 29 95 1z m-230 -72 c35 -32 37 -38 41
-105 4 -60 2 -71 -12 -71 -13 0 -16 12 -16 61 0 54 -3 64 -29 90 -20 20 -39
29 -61 29 -22 0 -41 -9 -61 -29 -26 -26 -29 -36 -29 -90 0 -48 -3 -61 -15 -61
-12 0 -15 14 -15 66 0 64 2 68 39 105 32 33 45 39 80 39 33 0 49 -7 78 -34z
m-30 -38 c19 -18 23 -32 23 -80 l0 -58 -70 0 -70 0 0 57 c0 44 5 62 22 80 27
29 65 29 95 1z m358 -158 l0 -105 -117 -3 -118 -3 0 54 c0 36 -5 59 -15 67 -9
8 -15 30 -15 57 l0 44 133 -3 132 -3 0 -105z m-260 -110 l0 -105 -145 0 -145
0 -3 94 c-1 52 0 101 2 108 4 11 36 13 148 11 l143 -3 0 -105z"/>
<path d="M540 320 c0 -5 5 -10 10 -10 6 0 10 5 10 10 0 6 -4 10 -10 10 -5 0
-10 -4 -10 -10z"/>
<path d="M396 304 c-17 -17 -22 -44 -7 -44 5 0 11 9 14 20 6 24 45 27 54 3 4
-11 -6 -27 -35 -52 -60 -52 -57 -71 13 -71 30 0 55 5 55 10 0 6 -21 10 -47 10
l-48 1 43 37 c23 20 42 45 42 54 0 22 -27 48 -50 48 -10 0 -26 -7 -34 -16z"/>
<path d="M540 160 c0 -5 5 -10 10 -10 6 0 10 5 10 10 0 6 -4 10 -10 10 -5 0
-10 -4 -10 -10z"/>
<path d="M40 210 c0 -5 5 -10 10 -10 6 0 10 5 10 10 0 6 -4 10 -10 10 -5 0
-10 -4 -10 -10z"/>
<path d="M280 210 c0 -5 5 -10 10 -10 6 0 10 5 10 10 0 6 -4 10 -10 10 -5 0
-10 -4 -10 -10z"/>
<path d="M140 185 c-25 -26 -21 -47 5 -25 13 11 15 6 15 -39 0 -44 -3 -51 -20
-51 -11 0 -20 -4 -20 -10 0 -5 23 -10 50 -10 28 0 50 5 50 10 0 6 -9 10 -20
10 -18 0 -20 7 -20 70 0 39 -4 70 -8 70 -5 0 -19 -11 -32 -25z"/>
<path d="M40 50 c0 -5 5 -10 10 -10 6 0 10 5 10 10 0 6 -4 10 -10 10 -5 0 -10
-4 -10 -10z"/>
<path d="M280 50 c0 -5 5 -10 10 -10 6 0 10 5 10 10 0 6 -4 10 -10 10 -5 0
-10 -4 -10 -10z"/>
</g>
</svg>
