<?xml version="1.0" standalone="no"?>
<!DOCTYPE svg PUBLIC "-//W3C//DTD SVG 20010904//EN"
 "http://www.w3.org/TR/2001/REC-SVG-20010904/DTD/svg10.dtd">
<svg version="1.0" xmlns="http://www.w3.org/2000/svg"
 width="512.000000pt" height="512.000000pt" viewBox="0 0 512.000000 512.000000"
 preserveAspectRatio="xMidYMid meet">

<g transform="translate(0.000000,512.000000) scale(0.100000,-0.100000)"
fill="#000000" stroke="none">
<path d="M4044 5099 c-17 -19 -19 -41 -22 -193 l-4 -172 -66 -18 c-37 -10 -72
-20 -78 -22 -7 -3 -45 53 -88 128 -43 73 -88 143 -102 156 -32 28 -66 28 -100
-1 -43 -38 -35 -70 55 -227 l80 -140 -60 -60 -60 -59 -138 79 c-156 91 -194
100 -230 54 -27 -34 -27 -67 2 -98 12 -14 82 -60 155 -102 105 -60 132 -80
127 -93 -4 -9 -14 -46 -23 -83 l-17 -68 -176 0 c-161 0 -177 -2 -193 -19 -10
-11 -18 -36 -18 -56 0 -20 8 -45 18 -56 16 -17 32 -19 193 -19 l176 0 17 -73
c56 -230 231 -407 461 -463 l65 -16 4 -173 c4 -202 9 -215 84 -215 69 0 74 14
74 215 l0 171 68 16 c37 9 74 19 83 23 13 5 32 -21 90 -122 41 -70 86 -140
101 -155 32 -33 66 -36 102 -7 46 36 37 74 -54 230 l-79 138 59 60 60 60 139
-80 c157 -90 194 -98 230 -53 27 34 27 67 -1 98 -13 14 -83 60 -156 102 -105
60 -132 80 -127 93 4 9 14 46 23 84 l16 67 178 0 c171 0 177 1 192 22 22 31
20 91 -2 111 -16 15 -45 17 -193 17 l-175 0 -18 73 c-9 39 -18 78 -19 85 -1 8
55 46 128 88 177 101 203 135 154 198 -36 45 -73 37 -230 -53 l-139 -80 -60
60 -59 60 79 138 c91 156 100 194 54 230 -36 29 -70 26 -102 -6 -15 -16 -60
-86 -101 -156 -58 -101 -77 -127 -90 -122 -9 4 -46 14 -83 23 l-68 16 0 177
c0 158 -2 178 -18 192 -27 25 -94 22 -118 -4z m181 -541 c223 -57 376 -287
344 -518 -35 -251 -283 -438 -529 -399 -334 52 -510 427 -334 711 110 176 317
258 519 206z"/>
<path d="M2255 4805 c-408 -58 -790 -221 -1109 -473 -91 -72 -286 -267 -358
-358 -198 -249 -346 -550 -424 -857 -87 -344 -87 -770 0 -1112 67 -263 166
-484 316 -709 83 -123 193 -256 226 -274 51 -27 114 10 114 68 0 28 -15 51
-102 157 -240 296 -400 676 -448 1067 -16 131 -13 405 5 532 102 702 528 1288
1165 1603 401 198 836 258 1307 180 63 -10 75 -10 97 5 45 29 47 102 3 130
-69 46 -575 72 -792 41z"/>
<path d="M1143 3592 c-121 -43 -210 -139 -243 -261 -9 -34 -9 -50 1 -73 33
-80 131 -57 157 37 44 156 250 206 365 89 44 -44 61 -84 61 -145 1 -86 -53
-180 -314 -549 -246 -348 -252 -359 -205 -405 l24 -25 335 0 335 0 20 26 c12
15 21 35 21 45 0 27 -20 67 -39 76 -9 4 -120 10 -247 13 l-232 5 178 253 c192
272 250 373 276 473 43 167 -45 349 -205 426 -75 36 -210 43 -288 15z"/>
<path d="M2165 3588 c-64 -35 -118 -118 -385 -593 -167 -296 -175 -319 -126
-361 27 -24 28 -24 292 -24 l264 0 0 -148 c0 -142 1 -149 23 -170 34 -32 89
-30 116 4 19 24 21 40 21 169 l0 143 57 4 c65 6 93 30 93 82 0 50 -34 76 -98
76 l-52 0 0 358 c0 398 -1 402 -70 450 -36 24 -101 29 -135 10z m42 -815 c-2
-2 -85 -2 -184 -1 l-180 3 116 205 c64 113 145 255 181 315 l65 110 3 -314 c1
-173 1 -316 -1 -318z"/>
<path d="M3122 3583 c-22 -19 -900 -2007 -909 -2058 -12 -71 85 -117 134 -62
30 33 903 2029 903 2064 0 61 -81 96 -128 56z"/>
<path d="M4461 3014 c-32 -16 -62 -41 -76 -63 -13 -20 -113 -238 -222 -486
-191 -434 -198 -452 -198 -515 0 -100 29 -141 165 -235 60 -42 112 -79 114
-84 7 -10 -67 -122 -142 -216 -80 -99 -251 -274 -356 -362 -87 -73 -253 -190
-259 -182 -2 2 -39 55 -82 117 -97 140 -136 167 -235 167 -57 -1 -81 -8 -198
-59 -137 -61 -162 -80 -162 -129 0 -35 40 -77 73 -77 13 0 81 25 152 56 111
49 130 54 154 44 16 -7 56 -55 106 -127 116 -169 119 -173 167 -173 97 0 364
195 598 436 207 214 370 447 370 531 0 49 -2 51 -173 168 -73 50 -121 90 -128
107 -10 23 9 70 183 467 107 243 202 451 212 463 15 18 25 20 68 15 123 -15
253 -112 309 -231 48 -103 62 -189 56 -361 -4 -129 -10 -169 -40 -285 -104
-403 -333 -787 -672 -1125 -228 -228 -441 -382 -710 -515 -276 -136 -462 -188
-701 -197 -173 -6 -256 7 -362 57 -117 55 -214 186 -229 308 -5 42 -2 53 15
67 11 10 107 56 214 102 106 47 201 94 211 105 40 46 1 128 -61 128 -30 0
-414 -166 -461 -200 -42 -29 -81 -113 -81 -172 0 -57 13 -57 -174 3 -164 54
-339 137 -330 158 78 180 88 343 33 509 -28 84 -106 199 -177 261 -61 54 -177
117 -229 126 -18 3 -44 10 -58 15 -14 5 -53 11 -86 12 -56 3 -63 1 -85 -25
-43 -51 -30 -90 49 -141 191 -122 216 -384 51 -536 -162 -149 -402 -118 -520
67 -51 79 -90 92 -141 49 -25 -22 -28 -30 -26 -82 9 -191 117 -378 280 -485
161 -105 365 -132 548 -72 72 23 115 46 189 102 l66 50 102 -48 c149 -70 285
-119 432 -156 l130 -32 34 -54 c73 -116 170 -188 322 -241 l95 -33 200 0 c174
0 214 3 305 23 457 102 893 354 1271 731 377 377 633 823 731 1273 19 86 22
134 23 298 0 177 -2 202 -23 270 -56 177 -152 302 -288 373 -138 71 -253 85
-343 41z m-3054 -1742 c91 -141 101 -305 28 -460 -66 -139 -202 -238 -361
-262 -130 -20 -276 26 -377 120 l-52 49 50 -15 c60 -19 213 -21 274 -4 172 46
315 190 361 361 23 83 15 216 -17 307 -11 30 58 -40 94 -96z"/>
<path d="M3093 2755 c-44 -31 -37 -111 13 -134 17 -7 114 -11 289 -11 146 0
265 -2 265 -6 0 -3 -106 -246 -236 -541 -246 -560 -246 -562 -207 -605 19 -21
81 -24 106 -6 20 16 547 1213 547 1243 0 12 -9 34 -21 49 l-20 26 -358 0
c-298 0 -360 -2 -378 -15z"/>
<path d="M167 1702 c-13 -14 -17 -38 -17 -100 l0 -82 -58 0 c-71 0 -92 -17
-92 -77 0 -56 22 -73 93 -73 l57 0 0 -83 c0 -98 12 -117 77 -117 60 0 75 23
81 120 l5 80 52 0 c63 0 87 21 87 75 0 54 -24 75 -87 75 l-52 0 -5 80 c-6 98
-21 120 -83 120 -28 0 -47 -6 -58 -18z"/>
<path d="M1466 397 c-19 -19 -26 -37 -26 -65 0 -36 -3 -40 -30 -45 -65 -14
-90 -79 -49 -131 14 -17 30 -26 50 -26 28 0 29 -2 29 -43 0 -58 27 -87 80 -87
49 0 80 35 80 91 0 36 2 39 29 39 35 0 71 40 71 77 0 30 -51 83 -79 83 -18 0
-21 6 -21 39 0 50 -25 80 -72 87 -30 5 -41 2 -62 -19z"/>
</g>
</svg>
