<?xml version="1.0" standalone="no"?>
<!DOCTYPE svg PUBLIC "-//W3C//DTD SVG 20010904//EN"
 "http://www.w3.org/TR/2001/REC-SVG-20010904/DTD/svg10.dtd">
<svg version="1.0" xmlns="http://www.w3.org/2000/svg"
 width="512.000000pt" height="512.000000pt" viewBox="0 0 512.000000 512.000000"
 preserveAspectRatio="xMidYMid meet">
<metadata>
Created by potrace 1.16, written by Peter Selinger 2001-2019
</metadata>
<g transform="translate(0.000000,512.000000) scale(0.100000,-0.100000)"
fill="#000000" stroke="none">
<path d="M2380 4932 c-39 -21 -80 -89 -80 -134 0 -22 -6 -29 -27 -33 -93 -20
-124 -30 -188 -59 -178 -83 -312 -235 -370 -419 -14 -43 -25 -89 -25 -103 0
-18 -8 -27 -27 -34 -50 -18 -78 -37 -100 -70 -21 -30 -23 -44 -23 -167 0 -100
4 -141 15 -163 15 -28 14 -31 -18 -73 -76 -99 -102 -221 -73 -335 36 -140 127
-234 279 -285 14 -5 17 -18 17 -70 0 -76 22 -164 57 -228 57 -106 203 -210
314 -225 l49 -7 0 -111 0 -111 -273 -113 c-289 -120 -341 -150 -407 -234 -58
-73 -77 -114 -109 -236 -15 -59 -30 -107 -32 -107 -2 0 -64 25 -136 54 l-133
54 0 57 0 56 58 18 c68 20 145 75 184 131 51 73 58 117 58 362 l0 223 31 0
c41 0 95 34 115 72 12 24 15 56 12 153 -3 122 -4 124 -33 155 -16 17 -39 33
-51 36 -17 4 -23 16 -29 50 -10 69 -71 179 -134 243 -66 67 -142 113 -228 137
-53 15 -62 20 -67 45 -3 15 -19 43 -35 61 l-29 33 -124 3 c-100 3 -129 1 -154
-13 -33 -18 -64 -62 -64 -92 0 -15 -16 -24 -72 -41 -92 -27 -133 -53 -142 -88
-10 -38 10 -80 45 -94 31 -13 37 -12 116 19 l53 21 0 -135 0 -135 -135 0 -135
0 0 30 c0 41 -39 80 -80 80 -37 0 -80 -39 -80 -72 0 -29 -8 -39 -45 -60 -57
-31 -70 -69 -70 -198 0 -95 3 -121 18 -143 23 -35 74 -67 109 -67 l26 0 4
-232 c3 -232 3 -233 32 -295 44 -95 126 -166 223 -192 l43 -12 0 -58 c0 -38
-5 -61 -12 -64 -267 -109 -476 -201 -485 -214 -10 -13 -13 -160 -13 -655 l0
-637 22 -21 c28 -26 78 -26 106 0 21 20 22 29 22 190 l0 170 285 0 285 0 0
-155 c0 -117 4 -163 15 -184 24 -46 74 -55 119 -20 l26 20 0 170 0 169 109 0
109 0 -34 -132 c-42 -166 -43 -199 -8 -227 46 -36 102 -24 122 26 6 15 95 363
197 773 102 410 188 752 191 760 9 23 62 -95 79 -176 12 -56 15 -187 15 -712
l0 -643 25 -24 c15 -16 36 -25 55 -25 19 0 40 9 55 25 l25 24 0 241 0 240 330
0 330 0 0 -240 0 -241 25 -24 c32 -33 78 -33 110 0 l25 24 0 241 0 240 330 0
330 0 0 -240 0 -241 25 -24 c32 -33 78 -33 110 0 l25 24 0 643 c0 510 3 657
14 708 17 80 71 202 79 180 4 -8 90 -350 192 -760 102 -410 191 -758 197 -773
20 -50 76 -62 122 -26 35 28 34 61 -8 227 l-34 132 109 0 109 0 0 -169 0 -170
26 -20 c45 -35 95 -26 119 20 11 21 15 67 15 184 l0 155 285 0 285 0 0 -170
c0 -161 1 -170 22 -190 28 -26 78 -26 106 0 l22 21 0 637 c0 495 -3 642 -12
655 -7 10 -87 48 -178 86 -91 37 -200 83 -242 100 l-78 33 0 59 0 58 43 12
c97 26 179 97 223 192 29 62 29 63 32 293 l4 232 41 5 c90 12 127 98 114 259
-7 81 -29 125 -75 147 -24 12 -35 26 -43 56 -50 192 -184 332 -364 380 -57 16
-65 21 -65 42 0 13 -15 40 -34 61 l-34 37 -120 3 c-96 3 -126 0 -151 -13 -33
-17 -71 -68 -71 -96 0 -11 -19 -21 -62 -33 -87 -24 -163 -70 -229 -137 -63
-64 -124 -174 -134 -243 -6 -34 -12 -46 -29 -50 -12 -3 -35 -19 -51 -36 -29
-31 -30 -33 -33 -155 -3 -99 0 -129 13 -154 20 -40 70 -71 113 -71 l32 0 0
-223 c0 -248 7 -293 60 -365 41 -57 113 -108 183 -128 l57 -18 0 -56 0 -56
-129 -54 c-72 -29 -133 -53 -137 -52 -5 0 -21 49 -36 107 -15 59 -40 130 -55
158 -44 81 -138 169 -226 211 -107 51 -152 47 -177 -14 -22 -53 -1 -81 96
-129 l84 -43 -19 -26 c-77 -111 -120 -252 -128 -424 l-6 -128 -328 0 -329 0 0
223 0 222 121 185 c67 102 123 187 125 189 2 2 31 -8 64 -23 111 -48 170 -29
170 55 0 45 -15 58 -107 95 l-73 29 0 111 0 111 49 7 c57 8 172 63 218 106 95
86 141 186 151 323 l7 88 59 24 c72 29 119 66 168 131 54 70 73 132 73 234 -1
71 -5 95 -28 145 -16 33 -41 77 -58 97 -29 36 -29 39 -14 67 21 42 22 279 0
321 -17 32 -56 63 -99 77 -26 8 -31 16 -42 69 -30 148 -122 301 -238 394 -100
82 -197 126 -338 155 -23 4 -28 11 -28 33 0 45 -41 113 -80 134 -29 15 -59 18
-180 18 -121 0 -151 -3 -180 -18z m280 -462 l0 -320 -100 0 -100 0 0 320 0
320 100 0 100 0 0 -320z m-360 -90 l0 -230 -225 0 c-195 0 -225 2 -225 15 0
29 41 140 68 181 l26 42 50 -33 c68 -45 112 -49 146 -15 22 22 26 76 7 101 -7
8 -29 27 -50 41 l-38 26 53 30 c29 17 78 38 108 47 30 9 60 18 65 20 6 2 11 4
13 4 1 1 2 -102 2 -229z m645 191 c17 -7 50 -24 73 -38 l44 -25 -39 -26 c-21
-14 -43 -33 -50 -41 -19 -25 -15 -79 7 -101 34 -34 78 -30 146 15 l50 33 26
-42 c27 -41 68 -152 68 -181 0 -13 -30 -15 -225 -15 l-225 0 0 229 0 229 48
-13 c26 -7 61 -18 77 -24z m475 -666 l0 -85 -860 0 -860 0 0 85 0 85 860 0
860 0 0 -85z m-220 -603 c0 -290 -3 -368 -15 -409 -20 -66 -93 -148 -160 -179
-50 -24 -51 -24 -465 -24 -414 0 -415 0 -465 24 -67 31 -140 113 -160 179 -12
41 -15 119 -15 409 l0 358 640 0 640 0 0 -358z m-1440 127 l0 -211 -27 17
c-81 52 -117 113 -117 200 0 42 6 72 22 102 22 42 86 103 109 103 10 0 13 -47
13 -211z m1663 180 c55 -45 81 -102 81 -174 0 -87 -36 -148 -116 -200 l-28
-17 0 211 c0 164 3 211 13 211 7 0 29 -14 50 -31z m-2573 -409 l0 -200 -45 0
-45 0 0 200 0 200 45 0 45 0 0 -200z m3510 0 l0 -200 -45 0 -45 0 0 200 0 200
45 0 45 0 0 -200z m-3259 30 c59 -30 121 -97 152 -163 15 -30 27 -58 27 -61 0
-3 -61 -6 -135 -6 l-135 0 0 135 0 135 25 -10 c13 -5 43 -19 66 -30z m3009
-95 l0 -135 -135 0 c-74 0 -135 3 -135 6 0 3 12 31 27 61 34 74 99 137 176
174 34 16 63 29 65 29 1 0 2 -61 2 -135z m525 85 c18 -11 49 -38 69 -60 34
-38 86 -128 86 -150 0 -6 -49 -10 -135 -10 l-135 0 0 135 0 134 41 -14 c23 -9
56 -24 74 -35z m-3245 -435 l0 -55 -590 0 -590 0 0 55 0 55 590 0 590 0 0 -55z
m3520 0 l0 -55 -590 0 -590 0 0 55 0 55 590 0 590 0 0 -55z m-4190 -270 c0
-60 19 -109 45 -119 30 -11 62 -6 89 15 24 19 26 27 26 90 l0 69 175 0 175 0
0 -215 c0 -179 -3 -221 -16 -248 -23 -46 -44 -66 -87 -88 -35 -19 -58 -20
-337 -17 l-298 3 -39 31 c-75 61 -78 72 -81 317 l-3 217 175 0 176 0 0 -55z
m3520 -14 c0 -63 2 -71 26 -90 27 -21 59 -26 89 -15 26 10 45 59 45 119 l0 55
176 0 175 0 -3 -217 c-3 -245 -6 -256 -81 -317 l-39 -31 -298 -3 c-279 -3
-302 -2 -337 17 -43 22 -64 42 -87 88 -13 27 -16 69 -16 248 l0 215 175 0 175
0 0 -69z m-1460 -71 l0 -100 -220 0 -220 0 0 100 0 100 220 0 220 0 0 -100z
m-93 -284 c-9 -13 -39 -60 -68 -105 -28 -45 -55 -81 -59 -81 -4 0 -31 36 -59
81 -29 45 -59 92 -68 105 l-15 24 142 0 142 0 -15 -24z m-329 -184 l122 -187
0 -222 0 -223 -329 0 -328 0 -6 128 c-8 171 -51 313 -128 423 -18 25 -18 25
14 44 34 21 505 222 522 224 6 0 65 -83 133 -187z m-1428 -167 l0 -45 -130 0
-130 0 0 45 0 45 130 0 130 0 0 -45z m3520 0 l0 -45 -130 0 -130 0 0 45 0 45
130 0 130 0 0 -45z m-3812 -394 l82 -158 0 -102 0 -101 -285 0 -285 0 0 178 0
178 193 81 c105 45 197 82 203 82 6 1 48 -70 92 -158z m552 107 c69 -28 127
-53 129 -55 3 -2 -51 -230 -90 -375 l-10 -38 -169 0 -170 0 0 90 0 90 85 170
c47 94 88 170 92 170 4 0 64 -23 133 -52z m2965 -118 l85 -170 0 -90 0 -90
-170 0 -169 0 -10 38 c-39 146 -93 373 -90 376 7 5 254 105 261 106 5 0 46
-76 93 -170z m618 88 l197 -82 0 -178 0 -178 -70 0 c-62 0 -74 -3 -95 -25 -35
-34 -34 -86 1 -114 21 -17 41 -21 95 -21 l69 0 0 -85 0 -85 -285 0 -285 0 0
85 0 85 70 0 c63 0 74 3 97 26 21 21 24 32 19 62 -8 55 -35 72 -117 72 l-69 0
0 101 0 102 82 158 c44 88 84 159 87 159 3 0 95 -37 204 -82z m-2293 -463 l0
-155 -330 0 -330 0 0 155 0 155 330 0 330 0 0 -155z m820 0 l0 -155 -330 0
-330 0 0 155 0 155 330 0 330 0 0 -155z m-2580 -220 l0 -85 -285 0 -285 0 0
85 0 85 285 0 285 0 0 -85z m456 68 c-3 -10 -13 -48 -22 -85 l-16 -68 -129 0
-129 0 0 85 0 85 151 0 c139 0 150 -1 145 -17z m3064 -68 l0 -85 -129 0 -129
0 -16 68 c-9 37 -19 75 -22 85 -5 16 6 17 145 17 l151 0 0 -85z"/>
<path d="M2505 3565 c-24 -23 -25 -28 -25 -173 0 -136 2 -152 21 -176 28 -35
80 -36 114 -1 24 23 25 28 25 175 0 147 -1 152 -25 175 -15 16 -36 25 -55 25
-19 0 -40 -9 -55 -25z"/>
<path d="M2331 3084 c-28 -36 -26 -62 8 -116 100 -158 342 -158 442 0 34 54
36 80 8 116 -26 33 -90 37 -115 7 -49 -57 -65 -71 -88 -77 -51 -12 -74 1 -140
77 -25 30 -89 26 -115 -7z"/>
<path d="M637 2318 c-28 -22 -39 -65 -23 -101 15 -36 75 -93 113 -108 39 -14
131 -11 166 7 95 48 136 143 84 192 -36 34 -83 29 -121 -13 -18 -19 -41 -35
-52 -35 -11 0 -34 16 -51 35 -24 27 -39 35 -65 35 -19 0 -42 -6 -51 -12z"/>
<path d="M4142 2307 c-71 -76 38 -207 172 -207 68 0 102 12 145 53 47 45 63
87 50 126 -22 63 -93 71 -142 16 -17 -19 -40 -35 -51 -35 -11 0 -34 16 -52 35
-39 43 -88 48 -122 12z"/>
</g>
</svg>
