<svg width="81" height="82" viewBox="0 0 81 82" fill="none" xmlns="http://www.w3.org/2000/svg">
<circle cx="40.499" cy="41.0517" r="40.3134" fill="#F8DA9A"/>
<path d="M59.8135 30.8209H34.4894V26.915C34.4894 17.4361 26.7924 9.7196 17.3375 9.7196C7.88254 9.7196 0.185547 17.4361 0.185547 26.915V32.1547C0.185547 32.9168 0.803211 33.536 1.56341 33.536C2.32361 33.536 2.94126 32.9168 2.94126 32.1547V26.915C2.94126 18.9604 9.40294 12.4823 17.3375 12.4823C25.272 12.4823 31.7337 18.9604 31.7337 26.915V30.8209H29.2156V26.2006C29.2156 19.6272 23.8942 14.34 17.385 14.34C10.8283 14.34 5.55444 19.6749 5.55444 26.2006V31.8689C5.55444 32.631 6.1721 33.2502 6.9323 33.2502C7.6925 33.2502 8.31015 32.631 8.31015 31.8689V26.2006C8.31015 21.1991 12.3962 17.1027 17.385 17.1027C22.3738 17.1027 26.4599 21.1991 26.4599 26.2006V30.8209H25.6521C22.7064 30.8209 20.3308 33.2026 20.3308 36.1558V58.7814C20.3308 61.7346 22.7064 64.1162 25.6521 64.1162H59.8135C62.7593 64.1162 65.1349 61.7346 65.1349 58.7814V36.1558C65.1349 33.2026 62.7593 30.8209 59.8135 30.8209ZM62.3316 58.7814C62.3316 60.2104 61.1913 61.3536 59.766 61.3536H25.6521C24.2268 61.3536 23.0865 60.2104 23.0865 58.7814V36.1558C23.0865 34.7268 24.2268 33.5836 25.6521 33.5836H59.8135C61.2389 33.5836 62.3792 34.7268 62.3792 36.1558V58.7814H62.3316Z" fill="black"/>
<path d="M48.4101 44.0153C48.2676 41.1573 45.892 38.7756 42.9937 38.6327C41.4258 38.5851 39.9529 39.1091 38.8127 40.2046C37.6724 41.3002 37.0547 42.7292 37.0547 44.3011C37.0547 45.9682 37.7674 47.5401 39.0027 48.588C39.0977 48.6833 39.1927 48.7785 39.1927 48.9214V53.4942C39.1927 55.0661 40.4281 56.3045 41.996 56.3045H43.4689C45.0368 56.3045 46.2721 55.0661 46.2721 53.4942V48.8738C46.2721 48.7785 46.3671 48.6833 46.4146 48.6356C47.745 47.5401 48.5052 45.8253 48.4101 44.0153ZM44.6091 46.5398C43.8965 47.159 43.4689 48.0164 43.4689 48.9214V53.5418H41.996V48.9691C41.996 48.064 41.5684 47.159 40.8557 46.5398C40.238 45.9682 39.8579 45.2061 39.8579 44.3487C39.8579 43.5389 40.1905 42.8244 40.7606 42.2528C41.2833 41.7289 41.996 41.4431 42.7562 41.4431C42.8037 41.4431 42.8512 41.4431 42.8987 41.4431C44.3716 41.4907 45.5594 42.6815 45.6544 44.1581C45.6544 45.1108 45.2743 45.9682 44.6091 46.5398Z" fill="black"/>
</svg>
